<svg aria-hidden="true" style="position: absolute; width: 0; height: 0; overflow: hidden;" version="1.1" xmlns="http://www.w3.org/2000/svg" xmlns:xlink="http://www.w3.org/1999/xlink">
<defs>
<symbol id="icon-project" viewBox="0 0 32 32">
<path fill="#4985ff" style="fill: var(--color1, #4985ff)" d="M31.466 0h-24c-0.295 0-0.534 0.239-0.534 0.534v0 8h1.066v-7.467h22.934v29.334c0 0.003 0 0.006 0 0.010 0 0.278-0.216 0.506-0.49 0.524l-0.002 0c-0.046 0-0.092-0.004-0.138-0.005-0.094-0.003-0.189-0.005-0.282-0.014-0.008 0-0.016 0-0.024-0.003-1.742-0.196-3.112-1.565-3.308-3.29l-0.002-0.017c0-0.008-0.002-0.016-0.003-0.022-0.012-0.114-0.019-0.245-0.019-0.379 0-0.001 0-0.002 0-0.003v0-1.066c0-0.295-0.239-0.534-0.534-0.534v0h-18.134v-9.6h-1.066v9.6h-4.266c-0.295 0-0.534 0.239-0.534 0.534v0 1.066c0.003 2.65 2.15 4.797 4.8 4.8h23.52c0.859-0.023 1.546-0.725 1.546-1.587 0-0.004-0-0.009-0-0.013v0.001-29.866c0 0 0 0 0 0 0-0.294-0.238-0.533-0.533-0.534h-0zM6.933 30.934c-2.061-0.002-3.731-1.672-3.734-3.733v-0.534h22.4v0.534c0.001 0.176 0.011 0.352 0.030 0.526 0.005 0.046 0.014 0.091 0.021 0.137 0.018 0.13 0.038 0.258 0.067 0.384 0.010 0.045 0.022 0.088 0.033 0.133 0.086 0.336 0.194 0.627 0.327 0.904l-0.012-0.029c0.013 0.026 0.024 0.053 0.037 0.077 0.067 0.136 0.141 0.266 0.221 0.394l0.030 0.054c0.087 0.136 0.181 0.267 0.282 0.394l0.017 0.023c0.219 0.275 0.459 0.517 0.722 0.731l0.009 0.007-20.449-0.002z"></path>
<path fill="#4985ff" style="fill: var(--color1, #4985ff)" d="M17.6 14.934c0.142 0 0.277-0.056 0.377-0.157l2.134-2.133c0.096-0.097 0.156-0.23 0.156-0.377s-0.060-0.281-0.156-0.377l-2.134-2.134c-0.096-0.096-0.23-0.156-0.377-0.156h-14.934c-1.473 0-2.667 1.194-2.667 2.667s1.194 2.667 2.667 2.667v0h14.934zM17.462 10.75l1.517 1.517-1.517 1.517-0.379-1.517 0.379-1.517zM4.266 10.666h12.118l-0.266 1.067h-10.784v1.066h10.784l0.266 1.066h-12.118v-3.2zM1.066 12.266c0-0.884 0.716-1.6 1.6-1.6v0h0.534v3.2h-0.534c-0.884 0-1.6-0.716-1.6-1.6v0zM12.266 22.934h16c0 0 0.001 0 0.001 0 0.295 0 0.534-0.239 0.534-0.534 0 0 0 0 0 0v0-16c-0.001-0.294-0.239-0.533-0.534-0.533-0.147 0-0.28 0.060-0.377 0.156v0l-16 16c-0.096 0.096-0.156 0.23-0.156 0.377 0 0.294 0.238 0.533 0.533 0.534h0zM27.733 7.687v1.379h-1.066v1.067h1.066v1.066h-1.066v1.066h1.066v1.067h-1.066v1.066h1.066v1.066h-1.066v1.067h1.066v1.066h-1.066v1.066h1.066v1.067h-1.066v1.066h1.066v1.066h-1.066v-1.066h-1.067v1.066h-1.066v-1.066h-1.067v1.066h-1.066v-1.066h-1.066v1.066h-1.067v-1.066h-1.066v1.066h-1.066v-1.066h-1.067v1.066h-1.066v-1.066h-1.066v1.066h-1.379l14.178-14.178z"></path>
<path fill="#4985ff" style="fill: var(--color1, #4985ff)" d="M19.992 19.734h5.075c0.295 0 0.534-0.239 0.534-0.534v0-5.074c-0-0.295-0.239-0.533-0.534-0.533-0.147 0-0.28 0.060-0.377 0.156v0l-5.075 5.075c-0.096 0.096-0.156 0.23-0.156 0.377 0 0.295 0.239 0.533 0.533 0.534v0zM24.534 15.414v3.253h-3.253l3.253-3.253zM24.534 3.2h-10.666v1.066h10.666v-1.066zM26.134 5.334h-13.866v1.066h13.866v-1.066zM12.267 16.533h-3.2v1.067h3.2v-1.067zM11.2 18.667h-2.133v1.066h2.134v-1.067z"></path>
</symbol>
</defs>
</svg>
